HIERARCHY
ROOT Hips
{
    OFFSET 0.000000 0.000000 0.000000
    CHANNELS 6 Xposition Yposition Zposition Zrotation Xrotation Yrotation
    JOINT Spine
    {
        OFFSET -0.000000 7.925200 0.000000
        CHANNELS 3 Zrotation Xrotation Yrotation
        JOINT Spine1
        {
            OFFSET -0.000000 23.364719 0.000000
            CHANNELS 3 Zrotation Xrotation Yrotation
            JOINT Neck
            {
                OFFSET -0.000000 23.268766 2.115342
                CHANNELS 3 Zrotation Xrotation Yrotation
                JOINT Head
                {
                    OFFSET -0.000000 13.530829 -1.932976
                    CHANNELS 3 Zrotation Xrotation Yrotation
                    End Site
                    {
                        OFFSET -0.000000 24.162195 0.000000
                    }
                }
            }
            JOINT LeftShoulder
            {
                OFFSET 3.858291 22.792089 -0.033814
                CHANNELS 3 Zrotation Xrotation Yrotation
                JOINT LeftArm
                {
                    OFFSET 7.057024 0.000000 0.000000
                    CHANNELS 3 Zrotation Xrotation Yrotation
                    JOINT LeftForeArm
                    {
                        OFFSET 34.734173 0.000000 0.000000
                        CHANNELS 3 Zrotation Xrotation Yrotation
                        JOINT LeftHand
                        {
                            OFFSET 23.943203 0.000000 0.000000
                            CHANNELS 3 Zrotation Xrotation Yrotation
                            End Site
                            {
                                OFFSET 14.497317 0.000000 0.000000
                            }
                        }
                    }
                }
            }
            JOINT RightShoulder
            {
                OFFSET -3.868823 22.792089 -0.033814
                CHANNELS 3 Zrotation Xrotation Yrotation
                JOINT RightArm
                {
                    OFFSET -7.057024 0.000000 0.000000
                    CHANNELS 3 Zrotation Xrotation Yrotation
                    JOINT RightForeArm
                    {
                        OFFSET -34.734173 0.000000 0.000000
                        CHANNELS 3 Zrotation Xrotation Yrotation
                        JOINT RightHand
                        {
                            OFFSET -23.943203 0.000000 0.000000
                            CHANNELS 3 Zrotation Xrotation Yrotation
                            End Site
                            {
                                OFFSET -14.497317 0.000000 0.000000
                            }
                        }
                    }
                }
            }
        }
    }
    JOINT LeftUpLeg
    {
        OFFSET 9.664878 0.000000 0.000000
        CHANNELS 3 Zrotation Xrotation Yrotation
        JOINT LeftLeg
        {
            OFFSET -0.000000 -38.728706 0.000000
            CHANNELS 3 Zrotation Xrotation Yrotation
            JOINT LeftFoot
            {
                OFFSET -0.000000 -40.242161 0.000000
                CHANNELS 3 Zrotation Xrotation Yrotation
                JOINT LeftToeBase
                {
                    OFFSET -0.000000 -6.282171 14.497317
                    CHANNELS 3 Zrotation Xrotation Yrotation
                    End Site
                    {
                        OFFSET -0.000000 0.000000 3.865951
                    }
                }
            }
        }
    }
    JOINT RightUpLeg
    {
        OFFSET -9.664878 0.000000 0.000000
        CHANNELS 3 Zrotation Xrotation Yrotation
        JOINT RightLeg
        {
            OFFSET -0.000000 -38.728706 0.000000
            CHANNELS 3 Zrotation Xrotation Yrotation
            JOINT RightFoot
            {
                OFFSET -0.000000 -40.242161 0.000000
                CHANNELS 3 Zrotation Xrotation Yrotation
                JOINT RightToeBase
                {
                    OFFSET -0.000000 -6.282171 14.497317
                    CHANNELS 3 Zrotation Xrotation Yrotation
                    End Site
                    {
                        OFFSET -0.000000 0.000000 3.865951
                    }
                }
            }
        }
    }
}
MOTION
Frames:    9
Frame Time:    0.008333
125.711693    88.572350    -0.013843    -1.882842    -1.394810    89.268936    3.527171    -7.275118    0.126340    2.626112    3.293322    -0.173554    -2.820454    23.662420    1.150135    2.530001    -6.999846    1.506873    9.047893    -1.943872    4.268934    -24.098953    -13.299134    -11.128592    57.454273    -45.421062    -69.043823    22.057272    -1.649820    20.308636    0.614505    8.000711    4.122939    26.247606    63.320564    38.611214    -2.252923    -9.652695    18.822866    7.553700    -9.042074    3.718751    1.896387    4.037451    -0.044669    -2.422455    0.099432    -3.967493    1.127867    -6.341344    10.072336    0.000000    0.000000    0.000000    1.019478    1.251613    1.039986    -1.573211    5.067656    0.064711    2.588262    -6.725547    -13.656160    0.000000    0.000000    0.000000    
125.714981    88.577866    -0.003992    -1.892673    -1.377192    89.229614    3.494417    -7.303498    0.127147    2.701572    3.327651    -0.174421    -2.790464    23.646957    1.200480    2.419480    -6.972329    1.538946    9.200409    -2.009424    4.191260    -24.203726    -14.027071    -11.465927    56.834957    -44.836269    -66.208916    20.841232    -4.168314    20.709778    0.640527    7.928832    4.089370    26.241915    63.314468    38.583149    -2.251417    -9.700435    18.808167    7.574048    -9.088615    3.736524    1.870414    4.047400    -0.044798    -2.394033    0.078989    -3.948581    0.852034    -6.425353    10.113417    0.000000    0.000000    0.000000    1.002503    1.241865    1.076157    -1.563165    5.069921    0.072814    2.588958    -6.719610    -13.664817    0.000000    0.000000    0.000000    
125.717903    88.585754    -0.001254    -1.889397    -1.346351    89.217941    3.429485    -7.329108    0.141159    2.780502    3.378063    -0.161181    -2.600243    23.668203    1.192166    2.164669    -6.998706    1.492234    9.450638    -2.042968    3.951518    -24.290211    -14.717487    -11.625218    56.560440    -43.899330    -62.941307    20.020195    -6.076160    20.570614    0.709474    7.691422    4.095565    26.388792    63.533092    38.292732    -2.269231    -9.878917    18.911211    7.418114    -9.266426    3.753109    1.819035    4.055610    -0.070656    -2.350334    0.068923    -3.938145    0.931084    -6.336240    10.123933    0.000000    0.000000    0.000000    0.966962    1.251036    1.071304    -1.548620    5.053514    0.044585    2.573356    -6.704598    -13.628081    0.000000    0.000000    0.000000    
125.718620    88.584473    0.008669    -1.891030    -1.329510    89.181290    3.198799    -7.273940    0.106933    3.267946    3.289012    -0.190466    -2.834867    23.687353    1.248260    2.090178    -6.955515    1.517495    9.387319    -2.181621    3.978942    -24.479858    -16.119461    -12.123881    55.628616    -42.240559    -60.555794    18.712828    -6.945446    19.484747    0.507891    7.777525    3.931647    26.161312    63.360847    38.567818    -2.236804    -9.799195    18.828194    7.512441    -9.192718    3.718135    1.804265    4.059785    -0.049666    -2.359031    0.069494    -3.906616    0.546913    -6.505299    10.188628    0.000000    0.000000    0.000000    0.952186    1.249552    1.108884    -1.543236    5.051127    0.063846    2.552590    -6.713972    -13.639856    0.000000    0.000000    0.000000    
125.724098    88.582619    0.026753    -1.877941    -1.333778    89.140602    3.212269    -7.220500    0.057322    3.320934    3.216555    -0.238679    -2.896322    23.865023    1.343374    1.997534    -7.138754    1.591337    9.521324    -2.312236    4.045513    -24.560612    -16.780670    -12.408513    55.345844    -40.653141    -57.483887    18.847645    -7.518511    18.585947    0.584760    7.789405    4.000627    26.099133    63.310318    38.552326    -2.246864    -9.740574    18.792257    7.476723    -9.131813    3.755114    1.823178    4.086269    -0.034633    -2.356830    0.059311    -3.912338    0.805847    -6.394238    10.159890    0.000000    0.000000    0.000000    0.974325    1.263474    1.149772    -1.559116    5.045135    0.038647    2.547272    -6.711879    -13.608154    0.000000    0.000000    0.000000    
125.720940    88.580849    0.067337    -1.866943    -1.399773    89.042984    3.263689    -7.157567    0.048688    3.372707    3.151685    -0.248446    -2.951856    23.917620    1.414053    2.022168    -7.116554    1.663885    9.728925    -2.495134    4.164156    -24.750929    -17.188290    -12.753160    55.141037    -38.949318    -54.526958    19.858919    -7.546177    17.951157    0.621014    7.793398    4.059075    26.118464    63.265301    38.517658    -2.297610    -9.748990    18.758024    7.507465    -9.131735    3.753623    1.944991    4.104511    0.078818    -2.421267    0.076540    -3.973201    1.079362    -6.335487    10.168655    0.000000    0.000000    0.000000    1.129960    1.219050    1.181848    -1.677134    5.113605    -0.076549    2.612798    -6.675315    -13.443202    0.000000    0.000000    0.000000    
125.722397    88.583672    0.083191    -1.861366    -1.399376    89.004211    3.260987    -7.126070    0.014356    3.429776    3.125494    -0.282552    -2.980170    24.011578    1.474181    1.943249    -7.222569    1.707202    9.927833    -2.499639    4.036797    -24.801872    -17.650551    -12.802823    54.758076    -37.353153    -51.871681    21.503468    -7.416937    17.675049    0.626708    7.815472    4.100736    26.102587    63.184853    38.523808    -2.329137    -9.842275    18.761290    7.519267    -9.225510    3.662706    1.954860    4.101418    0.113054    -2.428174    0.108295    -3.971506    0.819746    -6.447509    10.202620    0.000000    0.000000    0.000000    1.138182    1.220035    1.218574    -1.677879    5.115078    -0.062479    2.601816    -6.667189    -13.450447    0.000000    0.000000    0.000000    
125.737206    88.586121    0.090063    -1.828380    -1.391181    88.959816    3.295106    -7.078836    -0.020414    3.412415    3.096674    -0.316510    -3.031281    24.058132    1.533998    1.917102    -7.201571    1.758545    9.970297    -2.541086    4.129620    -24.753584    -18.417971    -13.143911    53.778126    -35.699398    -50.252483    23.288242    -6.745903    17.875942    0.675825    7.860719    4.172554    26.114733    63.089870    38.481037    -2.361032    -9.877099    18.740982    7.543978    -9.251894    3.707807    1.947562    4.153216    0.111755    -2.421963    0.102258    -3.942472    0.802936    -6.440339    10.214405    0.000000    0.000000    0.000000    1.134040    1.263137    1.211028    -1.682141    5.100281    -0.101160    2.616791    -6.653645    -13.367103    0.000000    0.000000    0.000000    
125.746323    88.589027    0.100482    -1.803123    -1.371923    88.906258    3.285702    -7.031339    -0.047950    3.434561    3.063627    -0.341652    -3.107683    24.083624    1.586176    1.957862    -7.147017    1.813715    10.168787    -2.573885    4.044368    -24.910454    -18.662544    -13.103659    53.327229    -34.613861    -48.705215    25.409700    -6.270462    18.210697    0.683819    7.888583    4.253377    26.196569    63.015648    38.392662    -2.390174    -9.902721    18.734049    7.477751    -9.273782    3.727999    1.929143    4.182795    0.141555    -2.412470    0.123681    -3.934107    0.782292    -6.444264    10.219909    0.000000    0.000000    0.000000    1.106248    1.292003    1.257741    -1.655026    5.094903    -0.089108    2.589169    -6.651035    -13.372058    0.000000    0.000000    0.000000    
